<?xml version="1.0" encoding="iso-8859-1"?>
<!-- Generator: Adobe Illustrator 24.0.1, SVG Export Plug-In . SVG Version: 6.00 Build 0)  -->
<svg version="1.1" id="Capa_1" xmlns="http://www.w3.org/2000/svg" xmlns:xlink="http://www.w3.org/1999/xlink" x="0px" y="0px"
	 viewBox="0 0 843.122 213.745" style="enable-background:new 0 0 843.122 213.745;" xml:space="preserve">
<g>
	<rect x="216.292" y="74.997" style="fill:none;" width="666.708" height="159.003"/>
	<g style="enable-background:new    ;">
		<path style="fill:#FFFFFF;" d="M215.149,90.81h6.461v8.101c2.584-3.102,5.445-5.422,8.584-6.959
			c3.139-1.537,6.553-2.306,10.245-2.306c3.754,0,7.084,0.858,9.991,2.576c2.908,1.718,5.054,4.029,6.438,6.938
			c1.384,2.908,2.077,7.436,2.077,13.585v23.264h-6.461v-21.561c0-5.207-0.24-8.683-0.719-10.427
			c-0.748-2.991-2.186-5.242-4.308-6.751c-2.123-1.509-4.892-2.264-8.308-2.264c-3.908,0-7.409,1.163-10.501,3.49
			c-3.093,2.326-5.131,5.207-6.116,8.64c-0.616,2.243-0.923,6.343-0.923,12.297v16.576h-6.461V90.81z"/>
		<path style="fill:#FFFFFF;" d="M317.811,90.81v45.199h-6.369v-7.769c-2.707,2.965-5.745,5.193-9.114,6.689
			c-3.369,1.495-7.054,2.243-11.053,2.243c-7.107,0-13.176-2.319-18.207-6.958c-5.031-4.639-7.546-10.282-7.546-16.929
			c0-6.509,2.538-12.075,7.615-16.7c5.077-4.625,11.183-6.938,18.322-6.938c4.122,0,7.853,0.789,11.191,2.368
			c3.338,1.578,6.269,3.946,8.791,7.104V90.81H317.811z M291.989,95.256c-3.596,0-6.915,0.795-9.957,2.386
			c-3.043,1.591-5.463,3.825-7.261,6.703c-1.798,2.876-2.696,5.92-2.696,9.128c0,3.182,0.906,6.226,2.719,9.129
			c1.813,2.904,4.249,5.166,7.306,6.784c3.057,1.619,6.339,2.428,9.842,2.428c3.534,0,6.884-0.803,10.049-2.407
			c3.165-1.604,5.6-3.776,7.306-6.515c1.705-2.739,2.558-5.823,2.558-9.254c0-5.228-1.913-9.599-5.74-13.112
			C302.291,97.013,297.582,95.256,291.989,95.256z"/>
		<path style="fill:#FFFFFF;" d="M327.338,90.81h6.461v8.101c2.584-3.102,5.445-5.422,8.584-6.959
			c3.139-1.537,6.553-2.306,10.245-2.306c3.754,0,7.084,0.858,9.991,2.576c2.908,1.718,5.054,4.029,6.438,6.938
			s2.077,7.436,2.077,13.585v23.264h-6.461v-21.561c0-5.207-0.24-8.683-0.719-10.427c-0.748-2.991-2.186-5.242-4.308-6.751
			c-2.123-1.509-4.892-2.264-8.308-2.264c-3.908,0-7.409,1.163-10.501,3.49c-3.093,2.326-5.131,5.207-6.116,8.64
			c-0.616,2.243-0.923,6.343-0.923,12.297v16.576h-6.461V90.81z"/>
		<path style="fill:#FFFFFF;" d="M385.602,74.027h6.461V90.81h10.246v5.026h-10.246v40.172h-6.461V95.837h-8.814V90.81h8.814V74.027
			z"/>
		<path style="fill:#FFFFFF;" d="M406.161,90.81h6.461v21.103c0,5.152,0.308,8.697,0.925,10.635c0.924,2.77,2.688,4.958,5.292,6.563
			c2.603,1.606,5.708,2.41,9.313,2.41c3.605,0,6.663-0.782,9.175-2.348c2.511-1.565,4.244-3.621,5.2-6.169
			c0.647-1.745,0.971-5.442,0.971-11.092V90.81h6.6v22.183c0,6.232-0.808,10.926-2.424,14.083c-1.615,3.157-4.046,5.629-7.291,7.416
			c-3.247,1.786-7.315,2.679-12.207,2.679c-4.891,0-8.975-0.893-12.253-2.679c-3.277-1.787-5.723-4.279-7.338-7.478
			c-1.616-3.198-2.423-8.01-2.423-14.437L406.161,90.81L406.161,90.81z"/>
		<path style="fill:#FFFFFF;" d="M522.391,85.639l-9.037,7.755c-6.148-5.849-13.065-8.774-20.75-8.774
			c-6.486,0-11.95,1.996-16.393,5.988c-4.441,3.992-6.663,8.913-6.663,14.762c0,4.075,0.984,7.693,2.951,10.855
			c1.968,3.161,4.749,5.641,8.345,7.443c3.597,1.801,7.594,2.703,11.989,2.703c3.749,0,7.177-0.63,10.282-1.892
			c3.104-1.262,6.516-3.555,10.237-6.882l8.761,8.228c-5.016,4.406-9.754,7.461-14.215,9.165c-4.462,1.703-9.553,2.555-15.276,2.555
			c-10.554,0-19.191-3.012-25.914-9.035c-6.724-6.024-10.083-13.744-10.083-23.161c0-6.092,1.53-11.508,4.591-16.243
			c3.061-4.736,7.446-8.544,13.154-11.425c5.707-2.88,11.852-4.321,18.437-4.321c5.6,0,10.991,1.065,16.176,3.194
			C514.168,78.683,518.637,81.713,522.391,85.639z"/>
		<path style="fill:#FFFFFF;" d="M550.509,89.647c4.738,0,9.191,1.066,13.362,3.199c4.168,2.133,7.422,5.026,9.76,8.682
			c2.338,3.657,3.507,7.603,3.507,11.841c0,4.265-1.176,8.254-3.53,11.964c-2.354,3.712-5.561,6.612-9.622,8.704
			c-4.061,2.09-8.537,3.136-13.431,3.136c-7.199,0-13.345-2.305-18.437-6.917c-5.093-4.612-7.638-10.213-7.638-16.805
			c0-7.062,2.877-12.947,8.63-17.655C538.155,91.697,543.955,89.647,550.509,89.647z M550.717,100.323
			c-3.914,0-7.174,1.225-9.778,3.677c-2.604,2.451-3.906,5.587-3.906,9.409c0,3.934,1.286,7.118,3.86,9.556
			c2.573,2.437,5.833,3.656,9.778,3.656c3.944,0,7.227-1.232,9.846-3.697c2.62-2.465,3.93-5.636,3.93-9.514
			c0-3.877-1.287-7.027-3.86-9.451C558.014,101.536,554.723,100.323,550.717,100.323z"/>
		<path style="fill:#FFFFFF;" d="M619.101,73.363h12.599v62.647h-12.599v-4.777c-2.459,2.106-4.925,3.621-7.399,4.55
			c-2.474,0.928-5.155,1.391-8.043,1.391c-6.484,0-12.093-2.264-16.826-6.792c-4.733-4.528-7.099-10.158-7.099-16.887
			c0-6.979,2.29-12.698,6.869-17.157c4.579-4.459,10.141-6.689,16.687-6.689c3.011,0,5.838,0.513,8.481,1.537
			c2.642,1.025,5.085,2.562,7.33,4.612L619.101,73.363L619.101,73.363z M605.857,100.116c-3.895,0-7.13,1.24-9.706,3.718
			c-2.576,2.479-3.863,5.657-3.863,9.534c0,3.905,1.31,7.118,3.931,9.638c2.623,2.52,5.849,3.781,9.682,3.781
			c3.956,0,7.237-1.24,9.843-3.718c2.605-2.479,3.909-5.726,3.909-9.742c0-3.933-1.304-7.118-3.909-9.556
			C613.139,101.335,609.843,100.116,605.857,100.116z"/>
		<path style="fill:#FFFFFF;" d="M689.356,116.692h-40.474c0.584,3.213,2.146,5.767,4.684,7.665
			c2.539,1.897,5.776,2.845,9.715,2.845c4.707,0,8.753-1.481,12.138-4.446l10.615,4.487c-2.647,3.379-5.815,5.879-9.507,7.499
			s-8.076,2.43-13.153,2.43c-7.878,0-14.292-2.236-19.246-6.709c-4.954-4.472-7.429-10.074-7.429-16.804
			c0-6.897,2.469-12.622,7.407-17.178c4.938-4.555,11.13-6.834,18.576-6.834c7.907,0,14.337,2.278,19.292,6.834
			c4.953,4.556,7.43,10.572,7.43,18.05L689.356,116.692z M676.757,107.76c-0.832-2.52-2.474-4.57-4.924-6.149
			c-2.45-1.578-5.292-2.367-8.529-2.367c-3.514,0-6.596,0.887-9.246,2.659c-1.665,1.108-3.204,3.06-4.623,5.857H676.757z"/>
	</g>
	<g>
		<polyline style="fill:none;stroke:#FFB910;stroke-width:7;stroke-miterlimit:10;" points="692.255,133.166 707.784,121.602 
			694.87,107.76 		"/>
		
			<linearGradient id="SVGID_1_" gradientUnits="userSpaceOnUse" x1="714.5239" y1="88.3826" x2="735.8799" y2="80.8505" gradientTransform="matrix(1 0 0 -1 0 216)">
			<stop  offset="0" style="stop-color:#034EA2"/>
			<stop  offset="0.1816" style="stop-color:#064DA1"/>
			<stop  offset="0.2999" style="stop-color:#0E4C9C"/>
			<stop  offset="0.4" style="stop-color:#1D4894"/>
			<stop  offset="0.4901" style="stop-color:#324488"/>
			<stop  offset="0.5735" style="stop-color:#4E3E7A"/>
			<stop  offset="0.652" style="stop-color:#6F3768"/>
			<stop  offset="0.7266" style="stop-color:#972E52"/>
			<stop  offset="0.7962" style="stop-color:#C4253A"/>
			<stop  offset="0.8505" style="stop-color:#ED1C24"/>
		</linearGradient>
		<rect x="712.839" y="127.722" style="fill:url(#SVGID_1_);" width="26.317" height="7.885"/>
	</g>
</g>
<g>
	<g>
		<g id="XMLID_27_">
			<g>
				<g id="XMLID_1976_">
					<g id="XMLID_1977_">
						<g id="XMLID_1978_">
							<g id="XMLID_1980_">
								<g id="XMLID_1981_">
									<g id="XMLID_1983_">
										<g id="XMLID_1984_">
											<g id="XMLID_1985_">
												<g id="XMLID_1986_">
													<g id="XMLID_2015_">
														<g id="XMLID_2016_">
															<g id="XMLID_2017_">
																<g id="XMLID_2019_">
																	<g id="XMLID_2031_">
																		<ellipse style="fill:#EAE16E;" cx="100.151" cy="104.954" rx="91.247" ry="87.854"/>
																	</g>
																</g>
															</g>
														</g>
													</g>
												</g>
											</g>
										</g>
									</g>
								</g>
							</g>
						</g>
					</g>
				</g>
			</g>
		</g>
	</g>
	<path style="fill:#08263E;" d="M41.809,194.204c-23.008-19.861-38.862-49.378-40.483-88.319c-0.028-0.673-0.023-1.359,0.016-2.032
		c2.257-39.871,18.344-69.557,41.362-89.27c17.148-14.687,40.904,7.772,27.259,25.761c-12.348,16.28-20.524,37.406-22.09,63.471
		c-0.042,0.699-0.048,1.409-0.018,2.109c1.096,25.437,9.046,46.354,21.332,62.644C82.784,186.598,58.903,208.96,41.809,194.204z"/>
</g>
</svg>
