<?xml version="1.0" encoding="utf-8"?>
<!-- Generator: Adobe Illustrator 24.0.1, SVG Export Plug-In . SVG Version: 6.00 Build 0)  -->
<svg version="1.0" id="Capa_1" xmlns="http://www.w3.org/2000/svg" xmlns:xlink="http://www.w3.org/1999/xlink" x="0px" y="0px"
	 width="1366px" height="768px" viewBox="0 0 1366 768" style="enable-background:new 0 0 1366 768;" xml:space="preserve">
<style type="text/css">
	.st0{fill:url(#SVGID_1_);}
	.st1{fill:url(#SVGID_2_);}
	.st2{fill:#FFFFFF;}
	.st3{fill:url(#SVGID_3_);}
	.st4{fill:url(#SVGID_4_);}
</style>
<g>
	<g>
		
			<linearGradient id="SVGID_1_" gradientUnits="userSpaceOnUse" x1="686.7696" y1="431.573" x2="452.7188" y2="517.0504" gradientTransform="matrix(1 0 0 -1 0 768)">
			<stop  offset="1.533547e-07" style="stop-color:#A933FF"/>
			<stop  offset="0.9988" style="stop-color:#5B3CE6"/>
		</linearGradient>
		<path class="st0" d="M764.8,238.6c-18,18.7-32.1,38.8-43,58.5c-12.1-3.9-24.9-6-38.3-6c-69,0-125,56.2-125,125.5V266.4
			c33.8-28.4,77.4-45.5,125-45.5C712.5,220.8,740.1,227.2,764.8,238.6z"/>
	</g>
	<g>
		
			<linearGradient id="SVGID_2_" gradientUnits="userSpaceOnUse" x1="846.1725" y1="377.7562" x2="818.5981" y2="311.8839" gradientTransform="matrix(1 0 0 -1 0 768)">
			<stop  offset="1.533547e-07" style="stop-color:#355EFC"/>
			<stop  offset="1" style="stop-color:#5B3CE6"/>
		</linearGradient>
		<path class="st1" d="M860.9,335.2c11.3,24.8,17.6,52.4,17.6,81.4c0,76.2-43.4,142.3-106.7,174.6c-6.5-21.2-18.5-42.2-35.5-60.8
			c42.6-20,72.2-63.4,72.2-113.8c0-18.7-4.1-36.4-11.4-52.3L860.9,335.2z"/>
	</g>
	<path class="st2" d="M721.8,297.1c-12.1-3.9-24.9-6-38.3-6c-69,0-125,56.2-125,125.5s56,125.5,125,125.5c18.9,0,36.8-4.2,52.8-11.7
		c42.6-20,72.2-63.4,72.2-113.8c0-18.7-4.1-36.4-11.4-52.3L721.8,297.1z"/>
	<path class="st2" d="M721.8,297.1c-12.1-3.9-24.9-6-38.3-6c-69,0-125,56.2-125,125.5s56,125.5,125,125.5c18.9,0,36.8-4.2,52.8-11.7
		c42.6-20,72.2-63.4,72.2-113.8c0-18.7-4.1-36.4-11.4-52.3c-4.6-9.6-12.6-23.4-26.1-36.7C752.7,309.5,733.1,301.1,721.8,297.1z"/>
	<g>
		
			<linearGradient id="SVGID_3_" gradientUnits="userSpaceOnUse" x1="654.0489" y1="298.8312" x2="439.349" y2="494.2232" gradientTransform="matrix(1 0 0 -1 0 768)">
			<stop  offset="0" style="stop-color:#F03DF5"/>
			<stop  offset="1" style="stop-color:#77C0F5"/>
		</linearGradient>
		<path class="st3" d="M771.8,591.2c-26.5,13.5-56.5,21.2-88.3,21.2c-55.3,0-105.3-23.1-140.8-60.2c-33.6-35.2-54.3-82.9-54.3-135.4
			V171.1c0-9,9.9-14.5,17.5-9.7l40.8,25.6c7.3,4.6,11.7,12.6,11.7,21.2v208.5c0,69.3,56,125.4,125,125.4c18.9,0,36.8-4.2,52.8-11.7
			C753.3,549,765.3,570.1,771.8,591.2z"/>
	</g>
	<g>
		
			<linearGradient id="SVGID_4_" gradientUnits="userSpaceOnUse" x1="773.1328" y1="408.331" x2="745.5583" y2="342.4587" gradientTransform="matrix(1 0 0 -1 0 768)">
			<stop  offset="1.533547e-07" style="stop-color:#355EFC"/>
			<stop  offset="1" style="stop-color:#5B3CE6"/>
		</linearGradient>
		<path class="st4" d="M860.9,335.2l-63.7,29.1c-14.5-31.8-41.9-56.4-75.4-67.2c11-19.7,25-39.8,43-58.5
			C807.2,258.2,841.5,292.6,860.9,335.2z"/>
	</g>
</g>
</svg>
