<?xml version="1.0" encoding="utf-8"?>
<!-- Generator: Adobe Illustrator 24.0.1, SVG Export Plug-In . SVG Version: 6.00 Build 0)  -->
<svg version="1.1" id="Capa_1" xmlns="http://www.w3.org/2000/svg" xmlns:xlink="http://www.w3.org/1999/xlink" x="0px" y="0px"
	 viewBox="0 0 515 213.7" style="enable-background:new 0 0 515 213.7;" xml:space="preserve">
<style type="text/css">
	.st0{fill:#031727;}
	.st1{fill:#88F9D4;}
	.st2{fill:none;}
	.st3{enable-background:new    ;}
	.st4{fill:none;stroke:#88F9D4;stroke-width:7;stroke-miterlimit:10;}
	.st5{fill:#88F9D4;stroke:#88F9D4;stroke-width:1;stroke-miterlimit:10.0002;}
</style>
<g>
	<g>
		<g id="XMLID_27_">
			<g>
				<g id="XMLID_1976_">
					<g id="XMLID_1977_">
						<g id="XMLID_1978_">
							<g id="XMLID_1980_">
								<g id="XMLID_1981_">
									<g id="XMLID_1983_">
										<g id="XMLID_1984_">
											<g id="XMLID_1985_">
												<g id="XMLID_1986_">
													<g id="XMLID_2015_">
														<g id="XMLID_2016_">
															<g id="XMLID_2017_">
																<g id="XMLID_2019_">
																	<g id="XMLID_2031_">
																		<ellipse class="st0" cx="99.5" cy="114.5" rx="91.2" ry="87.9"/>
																	</g>
																</g>
															</g>
														</g>
													</g>
												</g>
											</g>
										</g>
									</g>
								</g>
							</g>
						</g>
					</g>
				</g>
			</g>
		</g>
	</g>
	<path class="st1" d="M41.1,203.7c-23-19.9-38.9-49.4-40.5-88.3c0-0.7,0-1.4,0-2C2.9,73.5,19,43.8,42,24.1
		c17.2-14.7,40.9,7.8,27.3,25.7C57,66.1,48.8,87.2,47.2,113.3c0,0.7,0,1.4,0,2.1c1.1,25.4,9,46.4,21.3,62.6
		C82.1,196.1,58.2,218.5,41.1,203.7z"/>
</g>
<g>
	<rect x="193.1" y="65.3" class="st2" width="666.7" height="159"/>
	<g class="st3">
		<path class="st1" d="M64.1,114.7h3v3.8c1.2-1.5,2.6-2.6,4-3.3c1.4-0.7,3.1-1.1,4.8-1.1c1.8,0,3.3,0.4,4.7,1.2
			c1.4,0.8,2.4,1.9,3,3.3s1,3.5,1,6.4v11h-3v-10.1c0-2.5-0.1-4.1-0.3-4.9c-0.4-1.4-1-2.5-2-3.2s-2.3-1.1-3.9-1.1
			c-1.8,0-3.5,0.5-4.9,1.6c-1.5,1.1-2.4,2.5-2.9,4.1c-0.3,1.1-0.4,3-0.4,5.8v7.8h-3L64.1,114.7L64.1,114.7z"/>
		<path class="st1" d="M112.4,114.7V136h-3v-3.7c-1.3,1.4-2.7,2.4-4.3,3.1s-3.3,1.1-5.2,1.1c-3.3,0-6.2-1.1-8.6-3.3s-3.6-4.8-3.6-8
			c0-3.1,1.2-5.7,3.6-7.9c2.4-2.2,5.3-3.3,8.6-3.3c1.9,0,3.7,0.4,5.3,1.1c1.6,0.7,3,1.9,4.1,3.3v-3.9h3.1V114.7z M100.3,116.8
			c-1.7,0-3.3,0.4-4.7,1.1c-1.4,0.7-2.6,1.8-3.4,3.2s-1.3,2.8-1.3,4.3s0.4,2.9,1.3,4.3s2,2.4,3.4,3.2s3,1.1,4.6,1.1
			c1.7,0,3.2-0.4,4.7-1.1c1.5-0.8,2.6-1.8,3.4-3.1s1.2-2.7,1.2-4.4c0-2.5-0.9-4.5-2.7-6.2C105.1,117.6,102.9,116.8,100.3,116.8z"/>
		<path class="st1" d="M116.9,114.7h3v3.8c1.2-1.5,2.6-2.6,4-3.3c1.4-0.7,3.1-1.1,4.8-1.1c1.8,0,3.3,0.4,4.7,1.2
			c1.4,0.8,2.4,1.9,3,3.3c0.7,1.4,1,3.5,1,6.4v11h-3v-10.1c0-2.5-0.1-4.1-0.3-4.9c-0.4-1.4-1-2.5-2-3.2s-2.3-1.1-3.9-1.1
			c-1.8,0-3.5,0.5-4.9,1.6c-1.5,1.1-2.4,2.5-2.9,4.1c-0.3,1.1-0.4,3-0.4,5.8v7.8h-3L116.9,114.7L116.9,114.7z"/>
		<path class="st1" d="M144.4,106.8h3v7.9h4.8v2.4h-4.8V136h-3v-18.9h-4.2v-2.4h4.1L144.4,106.8L144.4,106.8z"/>
		<path class="st1" d="M154,114.7h3v9.9c0,2.4,0.1,4.1,0.4,5c0.4,1.3,1.3,2.3,2.5,3.1s2.7,1.1,4.4,1.1s3.1-0.4,4.3-1.1
			s2-1.7,2.4-2.9c0.3-0.8,0.5-2.6,0.5-5.2v-9.9h3.1v10.4c0,2.9-0.4,5.1-1.1,6.6c-0.8,1.5-1.9,2.6-3.4,3.5s-3.4,1.3-5.7,1.3
			s-4.2-0.4-5.8-1.3c-1.5-0.8-2.7-2-3.5-3.5s-1.1-3.8-1.1-6.8L154,114.7L154,114.7z"/>
		<path class="st1" d="M263.8,92.6l-9,7.8c-6.1-5.8-13.1-8.8-20.8-8.8c-6.5,0-11.9,2-16.4,6c-4.4,4-6.7,8.9-6.7,14.8
			c0,4.1,1,7.7,3,10.9s4.7,5.6,8.3,7.4s7.6,2.7,12,2.7c3.7,0,7.2-0.6,10.3-1.9c3.1-1.3,6.5-3.6,10.2-6.9l8.8,8.2
			c-5,4.4-9.8,7.5-14.2,9.2c-4.5,1.7-9.6,2.6-15.3,2.6c-10.6,0-19.2-3-25.9-9S198,121.9,198,112.4c0-6.1,1.5-11.5,4.6-16.2
			s7.4-8.5,13.2-11.4c5.7-2.9,11.9-4.3,18.4-4.3c5.6,0,11,1.1,16.2,3.2C255.6,85.7,260,88.7,263.8,92.6z"/>
		<path class="st1" d="M291.9,96.6c4.7,0,9.2,1.1,13.4,3.2s7.4,5,9.8,8.7c2.3,3.7,3.5,7.6,3.5,11.8c0,4.3-1.2,8.3-3.5,12
			c-2.4,3.7-5.6,6.6-9.6,8.7c-4.1,2.1-8.5,3.1-13.4,3.1c-7.2,0-13.3-2.3-18.4-6.9c-5.1-4.6-7.6-10.2-7.6-16.8
			c0-7.1,2.9-12.9,8.6-17.7C279.6,98.7,285.4,96.6,291.9,96.6z M292.1,107.3c-3.9,0-7.2,1.2-9.8,3.7s-3.9,5.6-3.9,9.4
			c0,3.9,1.3,7.1,3.9,9.6c2.6,2.4,5.8,3.7,9.8,3.7c3.9,0,7.2-1.2,9.8-3.7c2.6-2.5,3.9-5.6,3.9-9.5s-1.3-7-3.9-9.5
			C299.4,108.5,296.1,107.3,292.1,107.3z"/>
		<path class="st1" d="M360.5,80.3h12.6v62.6h-12.6v-4.8c-2.5,2.1-4.9,3.6-7.4,4.6c-2.5,0.9-5.2,1.4-8,1.4c-6.5,0-12.1-2.3-16.8-6.8
			s-7.1-10.2-7.1-16.9c0-7,2.3-12.7,6.9-17.2c4.6-4.5,10.1-6.7,16.7-6.7c3,0,5.8,0.5,8.5,1.5c2.6,1,5.1,2.6,7.3,4.6L360.5,80.3
			L360.5,80.3z M347.3,107.1c-3.9,0-7.1,1.2-9.7,3.7s-3.9,5.7-3.9,9.5c0,3.9,1.3,7.1,3.9,9.6s5.8,3.8,9.7,3.8c4,0,7.2-1.2,9.8-3.7
			s3.9-5.7,3.9-9.7c0-3.9-1.3-7.1-3.9-9.6C354.5,108.3,351.2,107.1,347.3,107.1z"/>
		<path class="st1" d="M430.8,123.7h-40.5c0.6,3.2,2.1,5.8,4.7,7.7c2.5,1.9,5.8,2.8,9.7,2.8c4.7,0,8.8-1.5,12.1-4.4l10.6,4.5
			c-2.6,3.4-5.8,5.9-9.5,7.5s-8.1,2.4-13.2,2.4c-7.9,0-14.3-2.2-19.2-6.7c-5-4.5-7.4-10.1-7.4-16.8c0-6.9,2.5-12.6,7.4-17.2
			s11.1-6.8,18.6-6.8c7.9,0,14.3,2.3,19.3,6.8c5,4.6,7.4,10.6,7.4,18V123.7z M418.2,114.7c-0.8-2.5-2.5-4.6-4.9-6.1
			c-2.5-1.6-5.3-2.4-8.5-2.4c-3.5,0-6.6,0.9-9.2,2.7c-1.7,1.1-3.2,3.1-4.6,5.9L418.2,114.7L418.2,114.7z"/>
	</g>
	<g>
		<polyline class="st4" points="443.9,134.7 459.4,123.1 446.5,109.2 		"/>
		
			<rect x="464.5" y="129.2" transform="matrix(0.9986 -5.335151e-02 5.335151e-02 0.9986 -6.4235 25.6737)" class="st5" width="26.3" height="7.9"/>
	</g>
</g>
</svg>
