<?xml version="1.0" encoding="iso-8859-1"?>
<!-- Generator: Adobe Illustrator 24.0.1, SVG Export Plug-In . SVG Version: 6.00 Build 0)  -->
<svg version="1.1" id="Capa_1" xmlns="http://www.w3.org/2000/svg" xmlns:xlink="http://www.w3.org/1999/xlink" x="0px" y="0px"
	 viewBox="0 0 515 213.745" style="enable-background:new 0 0 515 213.745;" xml:space="preserve">
<g>
	<g>
		<g id="XMLID_27_">
			<g>
				<g id="XMLID_1976_">
					<g id="XMLID_1977_">
						<g id="XMLID_1978_">
							<g id="XMLID_1980_">
								<g id="XMLID_1981_">
									<g id="XMLID_1983_">
										<g id="XMLID_1984_">
											<g id="XMLID_1985_">
												<g id="XMLID_1986_">
													<g id="XMLID_2015_">
														<g id="XMLID_2016_">
															<g id="XMLID_2017_">
																<g id="XMLID_2019_">
																	<g id="XMLID_2031_">
																		<ellipse style="fill:#EAE16E;" cx="100.151" cy="104.954" rx="91.247" ry="87.854"/>
																	</g>
																</g>
															</g>
														</g>
													</g>
												</g>
											</g>
										</g>
									</g>
								</g>
							</g>
						</g>
					</g>
				</g>
			</g>
		</g>
	</g>
	<path style="fill:#08263E;" d="M41.809,194.204c-23.008-19.861-38.862-49.378-40.483-88.319c-0.028-0.673-0.023-1.359,0.016-2.032
		c2.257-39.871,18.344-69.557,41.362-89.27c17.148-14.687,40.904,7.772,27.259,25.761c-12.348,16.28-20.524,37.406-22.09,63.471
		c-0.042,0.699-0.048,1.409-0.018,2.109c1.096,25.437,9.046,46.354,21.332,62.644C82.784,186.598,58.903,208.96,41.809,194.204z"/>
</g>
<g>
	<rect x="203.292" y="74.997" style="fill:none;" width="666.708" height="159.003"/>
	<g style="enable-background:new    ;">
		<path style="fill:#08263E;" d="M65.908,119.825h3.042v3.814c1.217-1.46,2.563-2.553,4.041-3.276s3.085-1.085,4.823-1.085
			c1.767,0,3.335,0.404,4.704,1.213c1.369,0.809,2.379,1.897,3.031,3.266s0.978,3.501,0.978,6.395v10.952h-3.042v-10.15
			c0-2.451-0.113-4.088-0.338-4.909c-0.352-1.408-1.029-2.468-2.028-3.178c-0.999-0.71-2.303-1.066-3.911-1.066
			c-1.84,0-3.488,0.547-4.944,1.643c-1.456,1.095-2.416,2.451-2.879,4.068c-0.29,1.056-0.435,2.986-0.435,5.789v7.803h-3.042
			V119.825z"/>
		<path style="fill:#08263E;" d="M114.238,119.825v21.278h-2.998v-3.657c-1.275,1.396-2.705,2.445-4.291,3.149
			c-1.586,0.704-3.321,1.056-5.204,1.056c-3.346,0-6.203-1.092-8.571-3.276c-2.369-2.184-3.553-4.841-3.553-7.97
			c0-3.064,1.195-5.685,3.585-7.862c2.39-2.177,5.265-3.266,8.625-3.266c1.94,0,3.697,0.371,5.269,1.115
			c1.571,0.743,2.951,1.858,4.139,3.344v-3.911H114.238z M102.082,121.918c-1.693,0-3.255,0.374-4.688,1.123
			c-1.433,0.749-2.572,1.801-3.418,3.155c-0.847,1.354-1.269,2.787-1.269,4.297c0,1.498,0.427,2.931,1.28,4.298
			c0.853,1.367,2,2.432,3.439,3.194c1.439,0.762,2.984,1.143,4.633,1.143c1.664,0,3.241-0.378,4.731-1.133
			c1.49-0.755,2.636-1.778,3.439-3.067c0.803-1.289,1.204-2.741,1.204-4.356c0-2.461-0.901-4.519-2.702-6.173
			C106.932,122.745,104.715,121.918,102.082,121.918z"/>
		<path style="fill:#08263E;" d="M118.723,119.825h3.042v3.814c1.217-1.46,2.563-2.553,4.041-3.276s3.085-1.085,4.823-1.085
			c1.767,0,3.335,0.404,4.704,1.213c1.369,0.809,2.379,1.897,3.031,3.266c0.652,1.369,0.978,3.501,0.978,6.395v10.952H136.3v-10.15
			c0-2.451-0.113-4.088-0.338-4.909c-0.352-1.408-1.029-2.468-2.028-3.178c-0.999-0.71-2.303-1.066-3.911-1.066
			c-1.84,0-3.488,0.547-4.944,1.643c-1.456,1.095-2.416,2.451-2.879,4.068c-0.29,1.056-0.435,2.986-0.435,5.789v7.803h-3.042
			V119.825z"/>
		<path style="fill:#08263E;" d="M146.152,111.924h3.042v7.901h4.824v2.366h-4.824v18.912h-3.042v-18.912h-4.15v-2.366h4.15V111.924
			z"/>
		<path style="fill:#08263E;" d="M155.831,119.825h3.042v9.935c0,2.425,0.145,4.094,0.435,5.007c0.435,1.304,1.265,2.334,2.491,3.09
			c1.226,0.756,2.687,1.135,4.384,1.135c1.697,0,3.137-0.368,4.319-1.105c1.182-0.737,1.998-1.705,2.448-2.904
			c0.305-0.821,0.457-2.562,0.457-5.222v-9.935h3.107v10.443c0,2.934-0.38,5.144-1.141,6.63c-0.76,1.486-1.905,2.65-3.433,3.491
			c-1.528,0.841-3.444,1.261-5.747,1.261c-2.303,0-4.225-0.421-5.768-1.261c-1.543-0.841-2.694-2.014-3.455-3.52
			c-0.761-1.506-1.141-3.771-1.141-6.796L155.831,119.825L155.831,119.825z"/>
		<path style="fill:#FFFFFF;" d="M261.391,107.908l-9.037,7.755c-6.148-5.849-13.065-8.774-20.75-8.774
			c-6.486,0-11.95,1.996-16.393,5.988c-4.441,3.992-6.663,8.913-6.663,14.762c0,4.075,0.984,7.694,2.951,10.855
			c1.968,3.161,4.749,5.641,8.345,7.443c3.597,1.801,7.594,2.703,11.989,2.703c3.749,0,7.177-0.63,10.282-1.892
			c3.104-1.262,6.516-3.555,10.237-6.882l8.761,8.228c-5.016,4.406-9.754,7.461-14.215,9.165c-4.462,1.703-9.553,2.555-15.276,2.555
			c-10.554,0-19.191-3.012-25.914-9.035c-6.724-6.024-10.083-13.744-10.083-23.161c0-6.092,1.529-11.508,4.591-16.243
			c3.061-4.736,7.446-8.544,13.154-11.425c5.707-2.88,11.852-4.321,18.437-4.321c5.6,0,10.991,1.065,16.176,3.194
			C253.168,100.952,257.637,103.982,261.391,107.908z"/>
		<path style="fill:#FFFFFF;" d="M289.509,111.916c4.738,0,9.191,1.066,13.362,3.199c4.168,2.133,7.422,5.026,9.76,8.682
			c2.337,3.657,3.507,7.603,3.507,11.841c0,4.265-1.176,8.254-3.53,11.964c-2.354,3.712-5.561,6.612-9.622,8.704
			c-4.061,2.09-8.537,3.136-13.431,3.136c-7.199,0-13.345-2.305-18.437-6.917c-5.093-4.612-7.638-10.213-7.638-16.805
			c0-7.062,2.877-12.947,8.63-17.655C277.155,113.966,282.955,111.916,289.509,111.916z M289.717,122.592
			c-3.914,0-7.174,1.225-9.778,3.677c-2.604,2.451-3.906,5.587-3.906,9.409c0,3.933,1.286,7.118,3.86,9.556
			c2.573,2.437,5.833,3.656,9.778,3.656c3.944,0,7.227-1.232,9.846-3.697c2.62-2.465,3.93-5.636,3.93-9.514
			c0-3.877-1.287-7.027-3.86-9.451C297.014,123.805,293.723,122.592,289.717,122.592z"/>
		<path style="fill:#FFFFFF;" d="M358.101,95.632h12.599v62.647h-12.599v-4.777c-2.459,2.106-4.925,3.622-7.399,4.55
			c-2.474,0.928-5.155,1.391-8.043,1.391c-6.484,0-12.093-2.264-16.825-6.792c-4.733-4.528-7.099-10.158-7.099-16.887
			c0-6.979,2.29-12.698,6.869-17.157c4.579-4.459,10.141-6.689,16.687-6.689c3.011,0,5.838,0.513,8.481,1.537
			c2.642,1.025,5.085,2.562,7.33,4.612L358.101,95.632L358.101,95.632z M344.857,122.385c-3.895,0-7.13,1.24-9.706,3.718
			c-2.576,2.479-3.863,5.657-3.863,9.534c0,3.905,1.311,7.118,3.931,9.638c2.623,2.52,5.849,3.781,9.682,3.781
			c3.956,0,7.237-1.24,9.843-3.718c2.605-2.479,3.909-5.726,3.909-9.742c0-3.933-1.304-7.118-3.909-9.556
			C352.139,123.604,348.843,122.385,344.857,122.385z"/>
		<path style="fill:#FFFFFF;" d="M428.356,138.961h-40.474c0.584,3.213,2.146,5.767,4.684,7.665
			c2.539,1.897,5.776,2.845,9.715,2.845c4.707,0,8.753-1.481,12.138-4.446l10.615,4.487c-2.647,3.379-5.815,5.879-9.507,7.499
			c-3.692,1.62-8.076,2.43-13.153,2.43c-7.878,0-14.292-2.236-19.246-6.709c-4.954-4.472-7.429-10.074-7.429-16.804
			c0-6.897,2.469-12.622,7.407-17.178c4.938-4.555,11.13-6.834,18.576-6.834c7.907,0,14.337,2.278,19.292,6.834
			c4.953,4.556,7.43,10.572,7.43,18.05L428.356,138.961z M415.757,130.029c-0.832-2.52-2.474-4.57-4.924-6.149
			c-2.45-1.578-5.293-2.367-8.529-2.367c-3.514,0-6.596,0.887-9.246,2.659c-1.665,1.108-3.204,3.06-4.623,5.857H415.757z"/>
	</g>
	<g>
		<polyline style="fill:none;stroke:#FFB910;stroke-width:7;stroke-miterlimit:10;" points="436.797,157.374 452.326,145.81 
			439.412,131.968 		"/>
		
			<linearGradient id="SVGID_1_" gradientUnits="userSpaceOnUse" x1="459.0661" y1="64.1748" x2="480.4222" y2="56.6426" gradientTransform="matrix(1 0 0 -1 0 216)">
			<stop  offset="0" style="stop-color:#034EA2"/>
			<stop  offset="0.1816" style="stop-color:#064DA1"/>
			<stop  offset="0.2999" style="stop-color:#0E4C9C"/>
			<stop  offset="0.4" style="stop-color:#1D4894"/>
			<stop  offset="0.4901" style="stop-color:#324488"/>
			<stop  offset="0.5735" style="stop-color:#4E3E7A"/>
			<stop  offset="0.652" style="stop-color:#6F3768"/>
			<stop  offset="0.7266" style="stop-color:#972E52"/>
			<stop  offset="0.7962" style="stop-color:#C4253A"/>
			<stop  offset="0.8505" style="stop-color:#ED1C24"/>
		</linearGradient>
		<rect x="457.381" y="151.93" style="fill:url(#SVGID_1_);" width="26.317" height="7.885"/>
	</g>
</g>
</svg>
